<svg width="56" height="53" viewBox="0 0 56 53" fill="none" xmlns="http://www.w3.org/2000/svg">
<g filter="url(#filter0_d)">
<path d="M50.9167 6.24998C48.9217 7.65723 46.7128 8.73355 44.375 9.43748C43.1203 7.9948 41.4528 6.97226 39.598 6.50816C37.7432 6.04407 35.7907 6.16081 34.0044 6.8426C32.2181 7.52438 30.6843 8.73832 29.6104 10.3202C28.5365 11.9021 27.9744 13.7757 28 15.6875V17.7708C24.3389 17.8658 20.711 17.0538 17.4396 15.4072C14.1683 13.7606 11.3549 11.3305 9.25004 8.33332C9.25004 8.33332 0.916708 27.0833 19.6667 35.4167C15.3761 38.3291 10.265 39.7894 5.08337 39.5833C23.8334 50 46.75 39.5833 46.75 15.625C46.7481 15.0447 46.6923 14.4658 46.5834 13.8958C48.7096 11.7989 50.2101 9.15147 50.9167 6.24998V6.24998Z" stroke="black" stroke-width="2" stroke-linecap="round" stroke-linejoin="round"/>
</g>
<defs>
<filter id="filter0_d" x="-1" y="0" width="58" height="58" filterUnits="userSpaceOnUse" color-interpolation-filters="sRGB">
<feFlood flood-opacity="0" result="BackgroundImageFix"/>
<feColorMatrix in="SourceAlpha" type="matrix" values="0 0 0 0 0 0 0 0 0 0 0 0 0 0 0 0 0 0 127 0"/>
<feOffset dy="4"/>
<feGaussianBlur stdDeviation="2"/>
<feColorMatrix type="matrix" values="0 0 0 0 0 0 0 0 0 0 0 0 0 0 0 0 0 0 0.25 0"/>
<feBlend mode="normal" in2="BackgroundImageFix" result="effect1_dropShadow"/>
<feBlend mode="normal" in="SourceGraphic" in2="effect1_dropShadow" result="shape"/>
</filter>
</defs>
</svg>
