<svg width="58" height="57" viewBox="0 0 58 57" fill="none" xmlns="http://www.w3.org/2000/svg">
<g filter="url(#filter0_d)">
<path d="M28.9933 11.9291C21.8949 11.9291 16.1661 17.5434 16.1661 24.5C16.1661 31.4566 21.8949 37.0709 28.9933 37.0709C36.0917 37.0709 41.8205 31.4566 41.8205 24.5C41.8205 17.5434 36.0917 11.9291 28.9933 11.9291ZM28.9933 32.6701C24.4028 32.6701 20.6566 28.9988 20.6566 24.5C20.6566 20.0012 24.4028 16.3299 28.9933 16.3299C33.5838 16.3299 37.33 20.0012 37.33 24.5C37.33 28.9988 33.5838 32.6701 28.9933 32.6701ZM42.3458 8.48455C40.6885 8.48455 39.3501 9.79619 39.3501 11.4204C39.3501 13.0446 40.6885 14.3563 42.3458 14.3563C44.0031 14.3563 45.3415 13.0508 45.3415 11.4204C45.342 11.0347 45.2649 10.6527 45.1145 10.2963C44.9641 9.93992 44.7435 9.61608 44.4652 9.34337C44.1869 9.07065 43.8565 8.85442 43.4928 8.70705C43.1291 8.55968 42.7393 8.48407 42.3458 8.48455ZM53.9972 24.5C53.9972 21.1167 54.0285 17.7641 53.8346 14.3869C53.6407 10.4643 52.7276 6.98291 49.8007 4.11448C46.8675 1.23991 43.3214 0.351184 39.3188 0.161181C35.8665 -0.0288227 32.4455 0.00182308 28.9995 0.00182308C25.5473 0.00182308 22.1263 -0.0288227 18.6803 0.161181C14.6776 0.351184 11.1253 1.24604 8.19837 4.11448C5.26519 6.98904 4.35834 10.4643 4.16447 14.3869C3.97059 17.7702 4.00186 21.1228 4.00186 24.5C4.00186 27.8772 3.97059 31.2359 4.16447 34.6131C4.35834 38.5357 5.27144 42.0171 8.19837 44.8855C11.1315 47.7601 14.6776 48.6488 18.6803 48.8388C22.1325 49.0288 25.5535 48.9982 28.9995 48.9982C32.4518 48.9982 35.8728 49.0288 39.3188 48.8388C43.3214 48.6488 46.8738 47.754 49.8007 44.8855C52.7339 42.011 53.6407 38.5357 53.8346 34.6131C54.0347 31.2359 53.9972 27.8833 53.9972 24.5ZM48.4936 38.9525C48.037 40.068 47.4867 40.9016 46.6049 41.7597C45.723 42.6239 44.8787 43.1632 43.7405 43.6107C40.4508 44.8917 32.6394 44.6036 28.9933 44.6036C25.3471 44.6036 17.5295 44.8917 14.2398 43.6168C13.1016 43.1694 12.251 42.63 11.3755 41.7658C10.4936 40.9016 9.94326 40.0742 9.48671 38.9586C8.18586 35.7286 8.4798 28.0733 8.4798 24.5C8.4798 20.9267 8.18586 13.2653 9.48671 10.0414C9.94326 8.92585 10.4936 8.09229 11.3755 7.23421C12.2573 6.37613 13.1016 5.83064 14.2398 5.38321C17.5295 4.10835 25.3471 4.39642 28.9933 4.39642C32.6394 4.39642 40.4571 4.10835 43.7467 5.38321C44.885 5.83064 45.7355 6.37 46.6111 7.23421C47.4929 8.09842 48.0433 8.92585 48.4998 10.0414C49.8007 13.2653 49.5068 20.9267 49.5068 24.5C49.5068 28.0733 49.8007 35.7286 48.4936 38.9525Z" fill="black"/>
</g>
<defs>
<filter id="filter0_d" x="0" y="0" width="58" height="57" filterUnits="userSpaceOnUse" color-interpolation-filters="sRGB">
<feFlood flood-opacity="0" result="BackgroundImageFix"/>
<feColorMatrix in="SourceAlpha" type="matrix" values="0 0 0 0 0 0 0 0 0 0 0 0 0 0 0 0 0 0 127 0"/>
<feOffset dy="4"/>
<feGaussianBlur stdDeviation="2"/>
<feColorMatrix type="matrix" values="0 0 0 0 0 0 0 0 0 0 0 0 0 0 0 0 0 0 0.25 0"/>
<feBlend mode="normal" in2="BackgroundImageFix" result="effect1_dropShadow"/>
<feBlend mode="normal" in="SourceGraphic" in2="effect1_dropShadow" result="shape"/>
</filter>
</defs>
</svg>
